{
  "accessors": [
    {
      "bufferView": 2,
      "componentType": 5126,
      "count": 21,
      "max": [
        1.002715826034546,
        0.9989697933197021,
        0.34451523423194885
      ],
      "min": [
        -1.0004600286483765,
        -1.0002250671386719,
        -0.01290183886885643
      ],
      "type": "VEC3"
    },
    {
      "bufferView": 2,
      "byteOffset": 252,
      "componentType": 5126,
      "count": 21,
      "max": [
        0.07037756592035294,
        -0.017823100090026855,
        0.9998332262039185
      ],
      "min": [
        0.0009766016155481339,
        -0.21750597655773163,
        0.9753741025924683
      ],
      "type": "VEC3"
    },
    {
      "bufferView": 1,
      "componentType": 5126,
      "count": 21,
      "max": [
        0.7787863612174988,
        0.9518918395042419
      ],
      "min": [
        0.13526853919029236,
        0.03832262381911278
      ],
      "type": "VEC2"
    },
    {
      "bufferView": 0,
      "componentType": 5125,
      "count": 72,
      "type": "SCALAR"
    },
    {
      "bufferView": 2,
      "byteOffset": 504,
      "componentType": 5126,
      "count": 266,
      "max": [
        0.9622367024421692,
        0.9752539992332458,
        1.0260908603668213
      ],
      "min": [
        -0.9622367024421692,
        -0.924475908279419,
        -1.0260908603668213
      ],
      "type": "VEC3"
    },
    {
      "bufferView": 2,
      "byteOffset": 3696,
      "componentType": 5126,
      "count": 266,
      "max": [
        0.9868902564048767,
        1.0,
        1.0
      ],
      "min": [
        -0.9868903160095215,
        -0.9980602264404297,
        -1.0
      ],
      "type": "VEC3"
    },
    {
      "bufferView": 1,
      "byteOffset": 168,
      "componentType": 5126,
      "count": 266,
      "max": [
        0.6056191325187683,
        0.8447495698928833
      ],
      "min": [
        0.46656742691993713,
        0.7387799024581909
      ],
      "type": "VEC2"
    },
    {
      "bufferView": 0,
      "byteOffset": 288,
      "componentType": 5125,
      "count": 408,
      "type": "SCALAR"
    },
    {
      "bufferView": 2,
      "byteOffset": 6888,
      "componentType": 5126,
      "count": 96,
      "max": [
        1.0,
        1.0,
        1.0
      ],
      "min": [
        -1.0,
        -1.0,
        -1.0
      ],
      "type": "VEC3"
    },
    {
      "bufferView": 2,
      "byteOffset": 8040,
      "componentType": 5126,
      "count": 96,
      "max": [
        0.9807853698730469,
        0.9807853698730469,
        1.0
      ],
      "min": [
        -0.9807853698730469,
        -0.9807853102684021,
        -1.0
      ],
      "type": "VEC3"
    },
    {
      "bufferView": 1,
      "byteOffset": 2296,
      "componentType": 5126,
      "count": 96,
      "max": [
        0.6019180417060852,
        0.5947175621986389
      ],
      "min": [
        0.44719579815864563,
        0.4791567027568817
      ],
      "type": "VEC2"
    },
    {
      "bufferView": 0,
      "byteOffset": 1920,
      "componentType": 5125,
      "count": 180,
      "type": "SCALAR"
    },
    {
      "bufferView": 2,
      "byteOffset": 9192,
      "componentType": 5126,
      "count": 68,
      "max": [
        1.0,
        1.0,
        1.0
      ],
      "min": [
        -1.0,
        -1.0,
        -1.0
      ],
      "type": "VEC3"
    },
    {
      "bufferView": 2,
      "byteOffset": 10008,
      "componentType": 5126,
      "count": 68,
      "max": [
        1.0,
        1.0,
        1.0
      ],
      "min": [
        -1.0,
        -1.0,
        -1.0
      ],
      "type": "VEC3"
    },
    {
      "bufferView": 1,
      "byteOffset": 3064,
      "componentType": 5126,
      "count": 68,
      "max": [
        0.6020509004592896,
        0.4578673839569092
      ],
      "min": [
        0.4374021887779236,
        0.3344454765319824
      ],
      "type": "VEC2"
    },
    {
      "bufferView": 0,
      "byteOffset": 2640,
      "componentType": 5125,
      "count": 180,
      "type": "SCALAR"
    },
    {
      "bufferView": 2,
      "byteOffset": 10824,
      "componentType": 5126,
      "count": 68,
      "max": [
        1.0,
        1.0,
        1.0
      ],
      "min": [
        -1.0,
        -1.0,
        -1.0
      ],
      "type": "VEC3"
    },
    {
      "bufferView": 2,
      "byteOffset": 11640,
      "componentType": 5126,
      "count": 68,
      "max": [
        1.0,
        1.0,
        1.0
      ],
      "min": [
        -1.0,
        -1.0,
        -1.0
      ],
      "type": "VEC3"
    },
    {
      "bufferView": 1,
      "byteOffset": 3608,
      "componentType": 5126,
      "count": 68,
      "max": [
        0.6158308982849121,
        0.7247276306152344
      ],
      "min": [
        0.46773433685302734,
        0.6094824075698853
      ],
      "type": "VEC2"
    },
    {
      "bufferView": 0,
      "byteOffset": 3360,
      "componentType": 5125,
      "count": 180,
      "type": "SCALAR"
    },
    {
      "bufferView": 2,
      "byteOffset": 12456,
      "componentType": 5126,
      "count": 96,
      "max": [
        1.0,
        1.0,
        1.0
      ],
      "min": [
        -1.0,
        -1.0,
        -1.0
      ],
      "type": "VEC3"
    },
    {
      "bufferView": 2,
      "byteOffset": 13608,
      "componentType": 5126,
      "count": 96,
      "max": [
        0.9807853698730469,
        0.9807853698730469,
        1.0
      ],
      "min": [
        -0.9807853698730469,
        -0.9807853102684021,
        -1.0
      ],
      "type": "VEC3"
    },
    {
      "bufferView": 1,
      "byteOffset": 4152,
      "componentType": 5126,
      "count": 96,
      "max": [
        0.6212733387947083,
        0.9637865424156189
      ],
      "min": [
        0.5035353302955627,
        0.8728026151657104
      ],
      "type": "VEC2"
    },
    {
      "bufferView": 0,
      "byteOffset": 4080,
      "componentType": 5125,
      "count": 180,
      "type": "SCALAR"
    },
    {
      "bufferView": 2,
      "byteOffset": 14760,
      "componentType": 5126,
      "count": 84,
      "max": [
        0.9749279022216797,
        1.0,
        1.027678370475769
      ],
      "min": [
        -0.9749279022216797,
        -0.9259174466133118,
        -1.027678370475769
      ],
      "type": "VEC3"
    },
    {
      "bufferView": 2,
      "byteOffset": 15768,
      "componentType": 5126,
      "count": 84,
      "max": [
        0.9860979318618774,
        0.92471843957901,
        1.0
      ],
      "min": [
        -0.9860806465148926,
        -0.9983510971069336,
        -1.0
      ],
      "type": "VEC3"
    },
    {
      "bufferView": 1,
      "byteOffset": 4920,
      "componentType": 5126,
      "count": 84,
      "max": [
        0.5933459997177124,
        0.8261244297027588
      ],
      "min": [
        0.42400506138801575,
        0.17211641371250153
      ],
      "type": "VEC2"
    },
    {
      "bufferView": 0,
      "byteOffset": 4800,
      "componentType": 5125,
      "count": 156,
      "type": "SCALAR"
    },
    {
      "bufferView": 2,
      "byteOffset": 16776,
      "componentType": 5126,
      "count": 68,
      "max": [
        1.0,
        1.0,
        1.0
      ],
      "min": [
        -1.0,
        -1.0,
        -1.0
      ],
      "type": "VEC3"
    },
    {
      "bufferView": 2,
      "byteOffset": 17592,
      "componentType": 5126,
      "count": 68,
      "max": [
        1.0,
        1.0,
        1.0
      ],
      "min": [
        -1.0,
        -1.0,
        -1.0
      ],
      "type": "VEC3"
    },
    {
      "bufferView": 1,
      "byteOffset": 5592,
      "componentType": 5126,
      "count": 68,
      "max": [
        0.5464522242546082,
        0.11794456839561462
      ],
      "min": [
        0.4210309386253357,
        0.02387860044836998
      ],
      "type": "VEC2"
    },
    {
      "bufferView": 0,
      "byteOffset": 5424,
      "componentType": 5125,
      "count": 180,
      "type": "SCALAR"
    }
  ],
  "asset": {
    "extras": {
      "author": "Liam kendall (https://sketchfab.com/Liam_3dmods)",
      "license": "CC-BY-4.0 (http://creativecommons.org/licenses/by/4.0/)",
      "source": "https://sketchfab.com/3d-models/english-money-809573029f68467d8c7b3205e905640f",
      "title": "English money"
    },
    "generator": "Sketchfab-12.67.0",
    "version": "2.0"
  },
  "bufferViews": [
    {
      "buffer": 0,
      "byteLength": 6144,
      "name": "floatBufferViews",
      "target": 34963
    },
    {
      "buffer": 0,
      "byteLength": 6136,
      "byteOffset": 6144,
      "byteStride": 8,
      "name": "floatBufferViews",
      "target": 34962
    },
    {
      "buffer": 0,
      "byteLength": 18408,
      "byteOffset": 12280,
      "byteStride": 12,
      "name": "floatBufferViews",
      "target": 34962
    }
  ],
  "buffers": [
    {
      "byteLength": 30688,
      "uri": "scene.bin"
    }
  ],
  "images": [
    {
      "uri": "textures/Material.001_baseColor.jpeg"
    },
    {
      "uri": "textures/coins_baseColor.jpeg"
    }
  ],
  "materials": [
    {
      "doubleSided": true,
      "name": "Material.001",
      "pbrMetallicRoughness": {
        "baseColorTexture": {
          "index": 0
        },
        "metallicFactor": 0.0,
        "roughnessFactor": 0.7802858941449407
      }
    },
    {
      "doubleSided": true,
      "name": "coins",
      "pbrMetallicRoughness": {
        "baseColorTexture": {
          "index": 1
        },
        "roughnessFactor": 0.5308013810648737
      }
    }
  ],
  "meshes": [
    {
      "name": "Plane_Material.001_0",
      "primitives": [
        {
          "attributes": {
            "NORMAL": 1,
            "POSITION": 0,
            "TEXCOORD_0": 2
          },
          "indices": 3,
          "material": 0,
          "mode": 4
        }
      ]
    },
    {
      "name": "Cylinder_coins_0",
      "primitives": [
        {
          "attributes": {
            "NORMAL": 5,
            "POSITION": 4,
            "TEXCOORD_0": 6
          },
          "indices": 7,
          "material": 1,
          "mode": 4
        }
      ]
    },
    {
      "name": "Cylinder.001_coins_0",
      "primitives": [
        {
          "attributes": {
            "NORMAL": 9,
            "POSITION": 8,
            "TEXCOORD_0": 10
          },
          "indices": 11,
          "material": 1,
          "mode": 4
        }
      ]
    },
    {
      "name": "Cylinder.002_coins_0",
      "primitives": [
        {
          "attributes": {
            "NORMAL": 13,
            "POSITION": 12,
            "TEXCOORD_0": 14
          },
          "indices": 15,
          "material": 1,
          "mode": 4
        }
      ]
    },
    {
      "name": "Cylinder.003_coins_0",
      "primitives": [
        {
          "attributes": {
            "NORMAL": 17,
            "POSITION": 16,
            "TEXCOORD_0": 18
          },
          "indices": 19,
          "material": 1,
          "mode": 4
        }
      ]
    },
    {
      "name": "Cylinder.004_coins_0",
      "primitives": [
        {
          "attributes": {
            "NORMAL": 21,
            "POSITION": 20,
            "TEXCOORD_0": 22
          },
          "indices": 23,
          "material": 1,
          "mode": 4
        }
      ]
    },
    {
      "name": "Cylinder.005_coins_0",
      "primitives": [
        {
          "attributes": {
            "NORMAL": 25,
            "POSITION": 24,
            "TEXCOORD_0": 26
          },
          "indices": 27,
          "material": 1,
          "mode": 4
        }
      ]
    },
    {
      "name": "Cylinder.006_coins_0",
      "primitives": [
        {
          "attributes": {
            "NORMAL": 29,
            "POSITION": 28,
            "TEXCOORD_0": 30
          },
          "indices": 31,
          "material": 1,
          "mode": 4
        }
      ]
    }
  ],
  "nodes": [
    {
      "children": [
        1
      ],
      "matrix": [
        1.0,
        0.0,
        0.0,
        0.0,
        0.0,
        2.220446049250313e-16,
        -1.0,
        0.0,
        0.0,
        1.0,
        2.220446049250313e-16,
        0.0,
        0.0,
        0.0,
        0.0,
        1.0
      ],
      "name": "Sketchfab_model"
    },
    {
      "children": [
        2
      ],
      "matrix": [
        1.0,
        0.0,
        0.0,
        0.0,
        0.0,
        0.0,
        1.0,
        0.0,
        0.0,
        -1.0,
        0.0,
        0.0,
        0.0,
        0.0,
        0.0,
        1.0
      ],
      "name": "89ab4e245e04477e988c696f0857b37c.fbx"
    },
    {
      "children": [
        3,
        5,
        7,
        9,
        11,
        13,
        15,
        17
      ],
      "name": "RootNode"
    },
    {
      "children": [
        4
      ],
      "matrix": [
        130.7351055087628,
        3.120384656925356,
        1.166540257047425e-07,
        0.0,
        0.4141680943466402,
        -17.352437286737143,
        -260.96808202570975,
        0.0,
        -3.113504790450218,
        130.4468592968372,
        -8.678687607946094,
        0.0,
        0.0,
        -6.543686866760254,
        29.655868530273438,
        1.0
      ],
      "name": "Plane"
    },
    {
      "mesh": 0,
      "name": "Plane_Material.001_0"
    },
    {
      "children": [
        6
      ],
      "matrix": [
        47.443065893163094,
        -8.800668135793714,
        -1.3379970672002394e-07,
        0.0,
        -5.16244907680668e-07,
        -2.049399035565204e-06,
        -48.252426147460895,
        0.0,
        0.38285068589841115,
        2.063889927225722,
        -9.175453124298441e-08,
        0.0,
        -31.05006217956543,
        16.628997802734375,
        92.48591613769531,
        1.0
      ],
      "name": "Cylinder"
    },
    {
      "mesh": 1,
      "name": "Cylinder_coins_0"
    },
    {
      "children": [
        8
      ],
      "matrix": [
        50.10145950317383,
        0.0,
        0.0,
        0.0,
        -0.0,
        -8.16256382077941e-06,
        -50.10145950317317,
        0.0,
        0.0,
        2.1795363426208207,
        -3.5509154169897626e-07,
        0.0,
        -31.167640686035156,
        2.161630630493164,
        -12.750398635864258,
        1.0
      ],
      "name": "Cylinder.001"
    },
    {
      "mesh": 2,
      "name": "Cylinder.001_coins_0"
    },
    {
      "children": [
        10
      ],
      "matrix": [
        52.11256146172317,
        -0.3735855483865659,
        -3.0458763008160306,
        0.0,
        -3.0276512495753356,
        2.187428272777037,
        -52.069039499900036,
        0.0,
        0.021762444353271633,
        2.268898978892515,
        0.09405137351676779,
        0.0,
        -68.21247100830078,
        15.512847900390625,
        7.373208045959473,
        1.0
      ],
      "name": "Cylinder.002"
    },
    {
      "mesh": 3,
      "name": "Cylinder.002_coins_0"
    },
    {
      "children": [
        12
      ],
      "matrix": [
        46.400518730730774,
        0.015722876675907962,
        -8.584913072874297,
        0.0,
        -8.529073370577525,
        -5.258163586251265,
        -46.108341317466454,
        0.0,
        -0.06482088267359011,
        3.1271070965668732,
        -0.34462264629736045,
        0.0,
        68.28331756591797,
        11.515619277954102,
        -6.920158863067627,
        1.0
      ],
      "name": "Cylinder.003"
    },
    {
      "mesh": 4,
      "name": "Cylinder.003_coins_0"
    },
    {
      "children": [
        14
      ],
      "matrix": [
        38.725389243030115,
        -3.9900298485135552,
        1.0511102666001287e-09,
        0.0,
        0.135365813090416,
        1.3137981319066847,
        -38.90799426592006,
        0.0,
        0.17347614791627045,
        1.6836794729749025,
        0.0574559991671591,
        0.0,
        130.87266540527344,
        12.412348747253418,
        150.13682556152344,
        1.0
      ],
      "name": "Cylinder.004"
    },
    {
      "mesh": 5,
      "name": "Cylinder.004_coins_0"
    },
    {
      "children": [
        16
      ],
      "matrix": [
        56.23054249928617,
        -0.18109956970373176,
        0.009673986529810226,
        0.0,
        -2.311740376730333e-08,
        -2.999472698089341,
        -56.15078265656542,
        0.0,
        0.009414595644147303,
        2.9148689526835914,
        -0.15570699870339352,
        0.0,
        76.48050689697266,
        7.214892864227295,
        58.09489440917969,
        1.0
      ],
      "name": "Cylinder.005"
    },
    {
      "mesh": 6,
      "name": "Cylinder.005_coins_0"
    },
    {
      "children": [
        18
      ],
      "matrix": [
        38.390305331245756,
        -10.235851998496669,
        0.938051285006822,
        0.0,
        0.9088924236099813,
        -0.23226987108451114,
        -39.731449948925835,
        0.0,
        0.44539911950121047,
        1.6705404616569985,
        0.0004229311426659956,
        0.0,
        -24.153636932373047,
        17.952632904052734,
        -4.482200622558594,
        1.0
      ],
      "name": "Cylinder.006"
    },
    {
      "mesh": 7,
      "name": "Cylinder.006_coins_0"
    }
  ],
  "samplers": [
    {
      "magFilter": 9729,
      "minFilter": 9987,
      "wrapS": 10497,
      "wrapT": 10497
    }
  ],
  "scene": 0,
  "scenes": [
    {
      "name": "Sketchfab_Scene",
      "nodes": [
        0
      ]
    }
  ],
  "textures": [
    {
      "sampler": 0,
      "source": 0
    },
    {
      "sampler": 0,
      "source": 1
    }
  ]
}
