{
  "accessors": [
    {
      "bufferView": 2,
      "componentType": 5126,
      "count": 10612,
      "max": [
        60.66971969604492,
        17.5277042388916,
        183.0290069580078
      ],
      "min": [
        -60.67393112182617,
        -14.100830078125,
        91.05274963378906
      ],
      "type": "VEC3"
    },
    {
      "bufferView": 2,
      "byteOffset": 127344,
      "componentType": 5126,
      "count": 10612,
      "max": [
        0.9998425245285034,
        0.9999443292617798,
        1.0
      ],
      "min": [
        -0.9998417496681213,
        -0.9999056458473206,
        -0.9979952573776245
      ],
      "type": "VEC3"
    },
    {
      "bufferView": 0,
      "componentType": 5125,
      "count": 63360,
      "type": "SCALAR"
    },
    {
      "bufferView": 2,
      "byteOffset": 254688,
      "componentType": 5126,
      "count": 306,
      "max": [
        17.870471954345703,
        14.007669448852539,
        91.05276489257813
      ],
      "min": [
        -17.86223793029785,
        -7.711429119110107,
        91.05274963378906
      ],
      "type": "VEC3"
    },
    {
      "bufferView": 2,
      "byteOffset": 258360,
      "componentType": 5126,
      "count": 306,
      "max": [
        1.4000000192027073e-05,
        0.00011200000153621659,
        1.0
      ],
      "min": [
        -1.4999999621068127e-05,
        -0.00017100000695791095,
        -1.0
      ],
      "type": "VEC3"
    },
    {
      "bufferView": 1,
      "componentType": 5126,
      "count": 306,
      "max": [
        74.02641296386719,
        3.9789650440216064
      ],
      "min": [
        -58.477630615234375,
        0.0
      ],
      "type": "VEC2"
    },
    {
      "bufferView": 0,
      "byteOffset": 253440,
      "componentType": 5125,
      "count": 306,
      "type": "SCALAR"
    },
    {
      "bufferView": 2,
      "byteOffset": 262032,
      "componentType": 5126,
      "count": 5020,
      "max": [
        39.907535552978516,
        18.67525291442871,
        157.1663360595703
      ],
      "min": [
        -39.960487365722656,
        -16.3649845123291,
        95.07600402832031
      ],
      "type": "VEC3"
    },
    {
      "bufferView": 2,
      "byteOffset": 322272,
      "componentType": 5126,
      "count": 5020,
      "max": [
        0.9998347759246826,
        0.9999392628669739,
        0.9985997676849365
      ],
      "min": [
        -0.9998390078544617,
        -0.9999258518218994,
        -0.9994532465934753
      ],
      "type": "VEC3"
    },
    {
      "bufferView": 3,
      "componentType": 5126,
      "count": 5020,
      "max": [
        1.0,
        0.9999995827674866,
        0.9999772310256958,
        1.0
      ],
      "min": [
        -0.9999967217445374,
        -1.0,
        -0.9999585747718811,
        -1.0
      ],
      "type": "VEC4"
    },
    {
      "bufferView": 1,
      "byteOffset": 2448,
      "componentType": 5126,
      "count": 5020,
      "max": [
        0.9961810111999512,
        0.9953380227088928
      ],
      "min": [
        0.002452000044286251,
        0.010125000029802322
      ],
      "type": "VEC2"
    },
    {
      "bufferView": 0,
      "byteOffset": 254664,
      "componentType": 5125,
      "count": 19368,
      "type": "SCALAR"
    }
  ],
  "asset": {
    "extras": {
      "author": "Tijerín Art Studio (https://sketchfab.com/tijerin_art)",
      "license": "CC-BY-4.0 (http://creativecommons.org/licenses/by/4.0/)",
      "source": "https://sketchfab.com/3d-models/short-gray-shirt-with-square-pattern-free-7718c78995b1467e988be10177763e69",
      "title": "Short gray shirt with square pattern - Free"
    },
    "generator": "Sketchfab-14.97.0",
    "version": "2.0"
  },
  "bufferViews": [
    {
      "buffer": 0,
      "byteLength": 332136,
      "name": "floatBufferViews",
      "target": 34963
    },
    {
      "buffer": 0,
      "byteLength": 42608,
      "byteOffset": 332136,
      "byteStride": 8,
      "name": "floatBufferViews",
      "target": 34962
    },
    {
      "buffer": 0,
      "byteLength": 382512,
      "byteOffset": 374744,
      "byteStride": 12,
      "name": "floatBufferViews",
      "target": 34962
    },
    {
      "buffer": 0,
      "byteLength": 80320,
      "byteOffset": 757256,
      "byteStride": 16,
      "name": "floatBufferViews",
      "target": 34962
    }
  ],
  "buffers": [
    {
      "byteLength": 837576,
      "uri": "scene.bin"
    }
  ],
  "extensionsUsed": [
    "KHR_materials_specular"
  ],
  "images": [
    {
      "uri": "textures/lambert5SG_baseColor.png"
    },
    {
      "uri": "textures/lambert5SG_metallicRoughness.png"
    },
    {
      "uri": "textures/lambert5SG_normal.png"
    }
  ],
  "materials": [
    {
      "doubleSided": true,
      "extensions": {
        "KHR_materials_specular": {
          "specularColorFactor": [
            1.0,
            1.0,
            1.0
          ],
          "specularFactor": 0.17699879167791524
        }
      },
      "name": "lambert3SG",
      "pbrMetallicRoughness": {
        "baseColorFactor": [
          0.0,
          0.0,
          0.0,
          1.0
        ],
        "metallicFactor": 0.0,
        "roughnessFactor": 0.6
      }
    },
    {
      "doubleSided": true,
      "name": "lambert5SG",
      "normalTexture": {
        "index": 2
      },
      "pbrMetallicRoughness": {
        "baseColorTexture": {
          "index": 0
        },
        "metallicFactor": 0.0,
        "metallicRoughnessTexture": {
          "index": 1
        }
      }
    }
  ],
  "meshes": [
    {
      "name": "Object_0",
      "primitives": [
        {
          "attributes": {
            "NORMAL": 1,
            "POSITION": 0
          },
          "indices": 2,
          "material": 0,
          "mode": 4
        }
      ]
    },
    {
      "name": "Object_1",
      "primitives": [
        {
          "attributes": {
            "NORMAL": 4,
            "POSITION": 3,
            "TEXCOORD_0": 5
          },
          "indices": 6,
          "material": 0,
          "mode": 4
        }
      ]
    },
    {
      "name": "Object_2",
      "primitives": [
        {
          "attributes": {
            "NORMAL": 8,
            "POSITION": 7,
            "TANGENT": 9,
            "TEXCOORD_0": 10
          },
          "indices": 11,
          "material": 1,
          "mode": 4
        }
      ]
    }
  ],
  "nodes": [
    {
      "children": [
        1
      ],
      "matrix": [
        1.0,
        0.0,
        0.0,
        0.0,
        0.0,
        2.220446049250313e-16,
        -1.0,
        0.0,
        0.0,
        1.0,
        2.220446049250313e-16,
        0.0,
        0.0,
        0.0,
        0.0,
        1.0
      ],
      "name": "Sketchfab_model"
    },
    {
      "children": [
        2,
        3,
        4
      ],
      "name": "camisa.obj.cleaner.materialmerger.gles"
    },
    {
      "mesh": 0,
      "name": "Object_2"
    },
    {
      "mesh": 1,
      "name": "Object_3"
    },
    {
      "mesh": 2,
      "name": "Object_4"
    }
  ],
  "samplers": [
    {
      "magFilter": 9729,
      "minFilter": 9987,
      "wrapS": 10497,
      "wrapT": 10497
    }
  ],
  "scene": 0,
  "scenes": [
    {
      "name": "Sketchfab_Scene",
      "nodes": [
        0
      ]
    }
  ],
  "textures": [
    {
      "sampler": 0,
      "source": 0
    },
    {
      "sampler": 0,
      "source": 1
    },
    {
      "sampler": 0,
      "source": 2
    }
  ]
}
